<svg width="26" height="26" viewBox="0 0 26 26" fill="none" xmlns="http://www.w3.org/2000/svg">
<circle cx="12.9861" cy="12.9861" r="12.9861" fill="#3E3E3E"/>
<path d="M2.9127 9.36708H4.20117L6.09835 14.7898L7.99554 9.36708H9.28401L6.61577 16.7529H5.58094L2.9127 9.36708ZM2.21774 9.36708H3.50113L3.73448 14.6528V16.7529H2.21774V9.36708ZM8.69558 9.36708H9.98404V16.7529H8.46223V14.6528L8.69558 9.36708ZM14.4125 10.6302L12.4037 16.7529H10.7855L13.5299 9.36708H14.5596L14.4125 10.6302ZM16.0814 16.7529L14.0676 10.6302L13.9052 9.36708H14.9451L17.7047 16.7529H16.0814ZM15.9901 14.0035V15.1956H12.0892V14.0035H15.9901ZM19.6425 9.36708L21.0324 11.944L22.4223 9.36708H24.1622L22.0165 13.0296L24.218 16.7529H22.4629L21.0324 14.1253L19.6019 16.7529H17.8366L20.0432 13.0296L17.8924 9.36708H19.6425Z" fill="white"/>
</svg>
